<svg width="128" height="128" viewBox="0 0 128 128" fill="none" xmlns="http://www.w3.org/2000/svg">
<rect width="128" height="128" rx="64" fill="black"/>
<path d="M64 24C85.1335 24 103.978 33.8309 116.247 49.1835C116.741 49.8012 117 50.573 117 51.3649C117 55.4315 108.729 57.4842 106.067 54.4188C95.84 42.6423 80.7865 35.2 64 35.2C47.2135 35.2 32.16 42.6423 21.9333 54.4188C19.2712 57.4843 11 55.4315 11 51.3649C11 50.573 11.2593 49.8012 11.753 49.1835C24.0223 33.8309 42.8665 24 64 24Z" fill="white"/>
<path d="M89.1053 72.3C89.1053 70.367 90.6664 68.8 92.5921 68.8H113.513C115.439 68.8 117 70.367 117 72.3V76.5C117 78.433 115.439 80 113.513 80H92.5921C90.6664 80 89.1053 78.433 89.1053 76.5V72.3Z" fill="white"/>
<path d="M38.8947 72.3C38.8947 70.367 40.4559 68.8 42.3816 68.8H63.3026C65.2284 68.8 66.7895 70.367 66.7895 72.3V76.5C66.7895 78.433 65.2284 80 63.3026 80H42.3816C40.4559 80 38.8947 78.433 38.8947 76.5V72.3Z" fill="white"/>
</svg>
